<mxfile host="Electron" agent="Mozilla/5.0 (Macintosh; Intel Mac OS X 10_15_7) AppleWebKit/537.36 (KHTML, like Gecko) draw.io/27.0.9 Chrome/134.0.6998.205 Electron/35.4.0 Safari/537.36" version="27.0.9">
  <diagram name="Trang-1" id="jspy14qL9236ISiQMJcs">
    <mxGraphModel dx="4851" dy="1464" grid="1" gridSize="10" guides="1" tooltips="1" connect="1" arrows="1" fold="1" page="1" pageScale="1" pageWidth="827" pageHeight="1169" math="0" shadow="0">
      <root>
        <mxCell id="0" />
        <mxCell id="1" parent="0" />
        <mxCell id="7lBcpjUwi6PKWLyO-9Ro-90" value="User" style="rounded=0;whiteSpace=wrap;html=1;fillColor=#f8cecc;strokeColor=#b85450;" parent="1" vertex="1">
          <mxGeometry x="-1700" y="543.04" width="120" height="60" as="geometry" />
        </mxCell>
        <mxCell id="7lBcpjUwi6PKWLyO-9Ro-91" value="Admin" style="rounded=0;whiteSpace=wrap;html=1;fillColor=#f8cecc;strokeColor=#b85450;" parent="1" vertex="1">
          <mxGeometry x="-1700" y="223.04" width="120" height="60" as="geometry" />
        </mxCell>
        <mxCell id="7lBcpjUwi6PKWLyO-9Ro-92" value="" style="endArrow=none;html=1;rounded=0;" parent="1" source="7lBcpjUwi6PKWLyO-9Ro-90" target="7lBcpjUwi6PKWLyO-9Ro-93" edge="1">
          <mxGeometry width="50" height="50" relative="1" as="geometry">
            <mxPoint x="-1620" y="542.04" as="sourcePoint" />
            <mxPoint x="-1520" y="503.03999999999996" as="targetPoint" />
          </mxGeometry>
        </mxCell>
        <mxCell id="7lBcpjUwi6PKWLyO-9Ro-93" value="&lt;u&gt;Id&lt;/u&gt;" style="ellipse;whiteSpace=wrap;html=1;" parent="1" vertex="1">
          <mxGeometry x="-1907.5" y="493.03999999999996" width="120" height="50" as="geometry" />
        </mxCell>
        <mxCell id="7lBcpjUwi6PKWLyO-9Ro-94" value="" style="endArrow=none;html=1;rounded=0;" parent="1" source="7lBcpjUwi6PKWLyO-9Ro-90" target="7lBcpjUwi6PKWLyO-9Ro-95" edge="1">
          <mxGeometry width="50" height="50" relative="1" as="geometry">
            <mxPoint x="-1630" y="613.04" as="sourcePoint" />
            <mxPoint x="-1540" y="703.04" as="targetPoint" />
          </mxGeometry>
        </mxCell>
        <mxCell id="7lBcpjUwi6PKWLyO-9Ro-95" value="FullName" style="ellipse;whiteSpace=wrap;html=1;" parent="1" vertex="1">
          <mxGeometry x="-1907" y="353.03999999999996" width="120" height="50" as="geometry" />
        </mxCell>
        <mxCell id="7lBcpjUwi6PKWLyO-9Ro-96" value="Email" style="ellipse;whiteSpace=wrap;html=1;" parent="1" vertex="1">
          <mxGeometry x="-1497" y="593.04" width="120" height="50" as="geometry" />
        </mxCell>
        <mxCell id="7lBcpjUwi6PKWLyO-9Ro-97" value="" style="endArrow=none;html=1;rounded=0;" parent="1" source="7lBcpjUwi6PKWLyO-9Ro-96" target="7lBcpjUwi6PKWLyO-9Ro-90" edge="1">
          <mxGeometry width="50" height="50" relative="1" as="geometry">
            <mxPoint x="-1721" y="695.04" as="sourcePoint" />
            <mxPoint x="-1670" y="603.04" as="targetPoint" />
          </mxGeometry>
        </mxCell>
        <mxCell id="7lBcpjUwi6PKWLyO-9Ro-98" value="Sex" style="ellipse;whiteSpace=wrap;html=1;" parent="1" vertex="1">
          <mxGeometry x="-1520" y="473.03999999999996" width="120" height="50" as="geometry" />
        </mxCell>
        <mxCell id="7lBcpjUwi6PKWLyO-9Ro-99" value="" style="endArrow=none;html=1;rounded=0;" parent="1" source="7lBcpjUwi6PKWLyO-9Ro-98" target="7lBcpjUwi6PKWLyO-9Ro-90" edge="1">
          <mxGeometry width="50" height="50" relative="1" as="geometry">
            <mxPoint x="-1751" y="475.03999999999996" as="sourcePoint" />
            <mxPoint x="-1657" y="533.04" as="targetPoint" />
          </mxGeometry>
        </mxCell>
        <mxCell id="7lBcpjUwi6PKWLyO-9Ro-100" value="DateBorn" style="ellipse;whiteSpace=wrap;html=1;" parent="1" vertex="1">
          <mxGeometry x="-1630" y="393.03999999999996" width="120" height="50" as="geometry" />
        </mxCell>
        <mxCell id="7lBcpjUwi6PKWLyO-9Ro-101" value="" style="endArrow=none;html=1;rounded=0;" parent="1" source="7lBcpjUwi6PKWLyO-9Ro-100" target="7lBcpjUwi6PKWLyO-9Ro-90" edge="1">
          <mxGeometry width="50" height="50" relative="1" as="geometry">
            <mxPoint x="-1791" y="655.04" as="sourcePoint" />
            <mxPoint x="-1697" y="563.04" as="targetPoint" />
          </mxGeometry>
        </mxCell>
        <mxCell id="7lBcpjUwi6PKWLyO-9Ro-104" value="Student" style="rounded=0;whiteSpace=wrap;html=1;fillColor=#f8cecc;strokeColor=#b85450;" parent="1" vertex="1">
          <mxGeometry x="-1340" y="508.03999999999996" width="120" height="60" as="geometry" />
        </mxCell>
        <mxCell id="7lBcpjUwi6PKWLyO-9Ro-105" value="Teacher" style="whiteSpace=wrap;html=1;fillColor=#f8cecc;strokeColor=#b85450;" parent="1" vertex="1">
          <mxGeometry x="-1410" y="243.04" width="120" height="60" as="geometry" />
        </mxCell>
        <mxCell id="7lBcpjUwi6PKWLyO-9Ro-106" value="" style="endArrow=none;html=1;rounded=0;" parent="1" source="7lBcpjUwi6PKWLyO-9Ro-90" target="7lBcpjUwi6PKWLyO-9Ro-107" edge="1">
          <mxGeometry width="50" height="50" relative="1" as="geometry">
            <mxPoint x="-1660" y="543.04" as="sourcePoint" />
            <mxPoint x="-1560" y="504.03999999999996" as="targetPoint" />
          </mxGeometry>
        </mxCell>
        <mxCell id="7lBcpjUwi6PKWLyO-9Ro-107" value="Password" style="ellipse;whiteSpace=wrap;html=1;" parent="1" vertex="1">
          <mxGeometry x="-1770" y="403.03999999999996" width="120" height="50" as="geometry" />
        </mxCell>
        <mxCell id="7lBcpjUwi6PKWLyO-9Ro-110" value="IdMajor" style="ellipse;whiteSpace=wrap;html=1;" parent="1" vertex="1">
          <mxGeometry x="-1450" y="683.04" width="120" height="50" as="geometry" />
        </mxCell>
        <mxCell id="7lBcpjUwi6PKWLyO-9Ro-111" value="" style="endArrow=none;html=1;rounded=0;exitX=0.75;exitY=1;exitDx=0;exitDy=0;" parent="1" source="7lBcpjUwi6PKWLyO-9Ro-90" target="7lBcpjUwi6PKWLyO-9Ro-110" edge="1">
          <mxGeometry width="50" height="50" relative="1" as="geometry">
            <mxPoint x="-1337" y="753.04" as="sourcePoint" />
            <mxPoint x="-1180" y="363.03999999999996" as="targetPoint" />
          </mxGeometry>
        </mxCell>
        <mxCell id="7lBcpjUwi6PKWLyO-9Ro-112" value="" style="endArrow=classic;html=1;rounded=0;" parent="1" source="7lBcpjUwi6PKWLyO-9Ro-105" edge="1">
          <mxGeometry width="50" height="50" relative="1" as="geometry">
            <mxPoint x="-1420" y="773.04" as="sourcePoint" />
            <mxPoint x="-1607" y="543.04" as="targetPoint" />
          </mxGeometry>
        </mxCell>
        <mxCell id="7lBcpjUwi6PKWLyO-9Ro-113" value="" style="endArrow=classic;html=1;rounded=0;exitX=0;exitY=0.5;exitDx=0;exitDy=0;" parent="1" source="7lBcpjUwi6PKWLyO-9Ro-104" target="7lBcpjUwi6PKWLyO-9Ro-90" edge="1">
          <mxGeometry width="50" height="50" relative="1" as="geometry">
            <mxPoint x="-1410" y="483.03999999999996" as="sourcePoint" />
            <mxPoint x="-1570" y="553.04" as="targetPoint" />
          </mxGeometry>
        </mxCell>
        <mxCell id="7lBcpjUwi6PKWLyO-9Ro-114" value="Deliver" style="rhombus;whiteSpace=wrap;html=1;fillColor=#fff2cc;strokeColor=#d6b656;" parent="1" vertex="1">
          <mxGeometry x="-607" y="223.04" width="120" height="55" as="geometry" />
        </mxCell>
        <mxCell id="7lBcpjUwi6PKWLyO-9Ro-115" value="" style="endArrow=classic;html=1;rounded=0;" parent="1" source="7lBcpjUwi6PKWLyO-9Ro-91" target="7lBcpjUwi6PKWLyO-9Ro-90" edge="1">
          <mxGeometry width="50" height="50" relative="1" as="geometry">
            <mxPoint x="-1397" y="483.03999999999996" as="sourcePoint" />
            <mxPoint x="-1587" y="533.04" as="targetPoint" />
          </mxGeometry>
        </mxCell>
        <mxCell id="7lBcpjUwi6PKWLyO-9Ro-116" value="Topic" style="rounded=0;whiteSpace=wrap;html=1;fillColor=#f8cecc;strokeColor=#b85450;" parent="1" vertex="1">
          <mxGeometry x="-607" y="543.04" width="120" height="60" as="geometry" />
        </mxCell>
        <mxCell id="7lBcpjUwi6PKWLyO-9Ro-117" value="" style="endArrow=none;html=1;rounded=0;" parent="1" source="7lBcpjUwi6PKWLyO-9Ro-116" target="7lBcpjUwi6PKWLyO-9Ro-118" edge="1">
          <mxGeometry width="50" height="50" relative="1" as="geometry">
            <mxPoint x="-970" y="603.04" as="sourcePoint" />
            <mxPoint x="-870" y="564.04" as="targetPoint" />
          </mxGeometry>
        </mxCell>
        <mxCell id="7lBcpjUwi6PKWLyO-9Ro-118" value="&lt;u&gt;Id&lt;/u&gt;" style="ellipse;whiteSpace=wrap;html=1;" parent="1" vertex="1">
          <mxGeometry x="-720" y="673.04" width="120" height="50" as="geometry" />
        </mxCell>
        <mxCell id="7lBcpjUwi6PKWLyO-9Ro-119" value="" style="endArrow=none;html=1;rounded=0;" parent="1" source="7lBcpjUwi6PKWLyO-9Ro-116" target="7lBcpjUwi6PKWLyO-9Ro-120" edge="1">
          <mxGeometry width="50" height="50" relative="1" as="geometry">
            <mxPoint x="-997" y="623.04" as="sourcePoint" />
            <mxPoint x="-750" y="683.04" as="targetPoint" />
          </mxGeometry>
        </mxCell>
        <mxCell id="LtdSx5ROrO8VcG1zq-1t-5" value="" style="edgeStyle=orthogonalEdgeStyle;rounded=0;orthogonalLoop=1;jettySize=auto;html=1;" parent="1" source="7lBcpjUwi6PKWLyO-9Ro-120" target="7lBcpjUwi6PKWLyO-9Ro-116" edge="1">
          <mxGeometry relative="1" as="geometry" />
        </mxCell>
        <mxCell id="7lBcpjUwi6PKWLyO-9Ro-120" value="Name" style="ellipse;whiteSpace=wrap;html=1;" parent="1" vertex="1">
          <mxGeometry x="-450" y="533.04" width="120" height="50" as="geometry" />
        </mxCell>
        <mxCell id="7lBcpjUwi6PKWLyO-9Ro-121" value="" style="endArrow=none;html=1;rounded=0;" parent="1" source="7lBcpjUwi6PKWLyO-9Ro-116" target="7lBcpjUwi6PKWLyO-9Ro-122" edge="1">
          <mxGeometry width="50" height="50" relative="1" as="geometry">
            <mxPoint x="-1107" y="643.04" as="sourcePoint" />
            <mxPoint x="-860" y="703.04" as="targetPoint" />
          </mxGeometry>
        </mxCell>
        <mxCell id="7lBcpjUwi6PKWLyO-9Ro-122" value="Purpose" style="ellipse;whiteSpace=wrap;html=1;" parent="1" vertex="1">
          <mxGeometry x="-470" y="613.04" width="120" height="50" as="geometry" />
        </mxCell>
        <mxCell id="7lBcpjUwi6PKWLyO-9Ro-123" value="" style="endArrow=none;html=1;rounded=0;" parent="1" source="7lBcpjUwi6PKWLyO-9Ro-116" target="7lBcpjUwi6PKWLyO-9Ro-124" edge="1">
          <mxGeometry width="50" height="50" relative="1" as="geometry">
            <mxPoint x="-1027" y="643.04" as="sourcePoint" />
            <mxPoint x="-920" y="733.04" as="targetPoint" />
          </mxGeometry>
        </mxCell>
        <mxCell id="7lBcpjUwi6PKWLyO-9Ro-124" value="Describe" style="ellipse;whiteSpace=wrap;html=1;" parent="1" vertex="1">
          <mxGeometry x="-480" y="463.03999999999996" width="120" height="50" as="geometry" />
        </mxCell>
        <mxCell id="7lBcpjUwi6PKWLyO-9Ro-125" value="" style="endArrow=none;html=1;rounded=0;" parent="1" source="7lBcpjUwi6PKWLyO-9Ro-204" target="7lBcpjUwi6PKWLyO-9Ro-114" edge="1">
          <mxGeometry width="50" height="50" relative="1" as="geometry">
            <mxPoint x="-1267" y="463.03999999999996" as="sourcePoint" />
            <mxPoint x="-1294" y="523.04" as="targetPoint" />
          </mxGeometry>
        </mxCell>
        <mxCell id="7lBcpjUwi6PKWLyO-9Ro-126" value="" style="endArrow=none;html=1;rounded=0;" parent="1" source="7lBcpjUwi6PKWLyO-9Ro-206" target="7lBcpjUwi6PKWLyO-9Ro-114" edge="1">
          <mxGeometry width="50" height="50" relative="1" as="geometry">
            <mxPoint x="-1047" y="573.04" as="sourcePoint" />
            <mxPoint x="-1117" y="473.03999999999996" as="targetPoint" />
          </mxGeometry>
        </mxCell>
        <mxCell id="7lBcpjUwi6PKWLyO-9Ro-127" value="InProgress" style="rhombus;whiteSpace=wrap;html=1;fillColor=#fff2cc;strokeColor=#d6b656;" parent="1" vertex="1">
          <mxGeometry x="-990" y="370.53999999999996" width="120" height="55" as="geometry" />
        </mxCell>
        <mxCell id="7lBcpjUwi6PKWLyO-9Ro-128" value="" style="endArrow=none;html=1;rounded=0;" parent="1" source="7lBcpjUwi6PKWLyO-9Ro-198" target="7lBcpjUwi6PKWLyO-9Ro-127" edge="1">
          <mxGeometry width="50" height="50" relative="1" as="geometry">
            <mxPoint x="-1417" y="550.54" as="sourcePoint" />
            <mxPoint x="-1434" y="610.54" as="targetPoint" />
          </mxGeometry>
        </mxCell>
        <mxCell id="7lBcpjUwi6PKWLyO-9Ro-129" value="" style="endArrow=none;html=1;rounded=0;" parent="1" source="7lBcpjUwi6PKWLyO-9Ro-202" target="7lBcpjUwi6PKWLyO-9Ro-127" edge="1">
          <mxGeometry width="50" height="50" relative="1" as="geometry">
            <mxPoint x="-1206.5" y="665.54" as="sourcePoint" />
            <mxPoint x="-1207.5" y="578.04" as="targetPoint" />
          </mxGeometry>
        </mxCell>
        <mxCell id="7lBcpjUwi6PKWLyO-9Ro-130" value="" style="endArrow=none;html=1;rounded=0;" parent="1" source="7lBcpjUwi6PKWLyO-9Ro-200" target="7lBcpjUwi6PKWLyO-9Ro-104" edge="1">
          <mxGeometry width="50" height="50" relative="1" as="geometry">
            <mxPoint x="-1297" y="613.04" as="sourcePoint" />
            <mxPoint x="-1330" y="723.04" as="targetPoint" />
          </mxGeometry>
        </mxCell>
        <mxCell id="7lBcpjUwi6PKWLyO-9Ro-131" value="Propose" style="rhombus;whiteSpace=wrap;html=1;fillColor=#fff2cc;strokeColor=#d6b656;" parent="1" vertex="1">
          <mxGeometry x="-990" y="538.04" width="120" height="55" as="geometry" />
        </mxCell>
        <mxCell id="7lBcpjUwi6PKWLyO-9Ro-132" value="" style="endArrow=none;html=1;rounded=0;" parent="1" source="7lBcpjUwi6PKWLyO-9Ro-208" target="7lBcpjUwi6PKWLyO-9Ro-131" edge="1">
          <mxGeometry width="50" height="50" relative="1" as="geometry">
            <mxPoint x="-1270" y="720.54" as="sourcePoint" />
            <mxPoint x="-1287" y="780.54" as="targetPoint" />
          </mxGeometry>
        </mxCell>
        <mxCell id="7lBcpjUwi6PKWLyO-9Ro-133" value="" style="endArrow=none;html=1;rounded=0;" parent="1" source="7lBcpjUwi6PKWLyO-9Ro-210" target="7lBcpjUwi6PKWLyO-9Ro-116" edge="1">
          <mxGeometry width="50" height="50" relative="1" as="geometry">
            <mxPoint x="-1057" y="693.04" as="sourcePoint" />
            <mxPoint x="-1060.5" y="608.04" as="targetPoint" />
          </mxGeometry>
        </mxCell>
        <mxCell id="7lBcpjUwi6PKWLyO-9Ro-134" value="Announcements" style="rounded=0;whiteSpace=wrap;html=1;fillColor=#f8cecc;strokeColor=#b85450;" parent="1" vertex="1">
          <mxGeometry x="-1700" y="963.04" width="120" height="60" as="geometry" />
        </mxCell>
        <mxCell id="7lBcpjUwi6PKWLyO-9Ro-135" value="" style="endArrow=none;html=1;rounded=0;" parent="1" source="7lBcpjUwi6PKWLyO-9Ro-134" target="7lBcpjUwi6PKWLyO-9Ro-136" edge="1">
          <mxGeometry width="50" height="50" relative="1" as="geometry">
            <mxPoint x="-1483" y="863.04" as="sourcePoint" />
            <mxPoint x="-1273" y="953.04" as="targetPoint" />
          </mxGeometry>
        </mxCell>
        <mxCell id="7lBcpjUwi6PKWLyO-9Ro-136" value="&lt;u&gt;ID&lt;/u&gt;" style="ellipse;whiteSpace=wrap;html=1;" parent="1" vertex="1">
          <mxGeometry x="-1560" y="1003.04" width="120" height="50" as="geometry" />
        </mxCell>
        <mxCell id="7lBcpjUwi6PKWLyO-9Ro-137" value="Create" style="rhombus;whiteSpace=wrap;html=1;fillColor=#fff2cc;strokeColor=#d6b656;" parent="1" vertex="1">
          <mxGeometry x="-1700" y="763.04" width="120" height="55" as="geometry" />
        </mxCell>
        <mxCell id="7lBcpjUwi6PKWLyO-9Ro-138" value="" style="endArrow=none;html=1;rounded=0;" parent="1" source="7lBcpjUwi6PKWLyO-9Ro-134" target="7lBcpjUwi6PKWLyO-9Ro-141" edge="1">
          <mxGeometry width="50" height="50" relative="1" as="geometry">
            <mxPoint x="-1510" y="883.04" as="sourcePoint" />
            <mxPoint x="-1510" y="953.04" as="targetPoint" />
          </mxGeometry>
        </mxCell>
        <mxCell id="7lBcpjUwi6PKWLyO-9Ro-139" value="" style="endArrow=none;html=1;rounded=0;" parent="1" source="7lBcpjUwi6PKWLyO-9Ro-150" target="7lBcpjUwi6PKWLyO-9Ro-137" edge="1">
          <mxGeometry width="50" height="50" relative="1" as="geometry">
            <mxPoint x="-1593" y="597.04" as="sourcePoint" />
            <mxPoint x="-1538" y="692.04" as="targetPoint" />
          </mxGeometry>
        </mxCell>
        <mxCell id="7lBcpjUwi6PKWLyO-9Ro-140" value="" style="endArrow=none;html=1;rounded=0;" parent="1" source="7lBcpjUwi6PKWLyO-9Ro-152" target="7lBcpjUwi6PKWLyO-9Ro-134" edge="1">
          <mxGeometry width="50" height="50" relative="1" as="geometry">
            <mxPoint x="-1510" y="763.04" as="sourcePoint" />
            <mxPoint x="-1530" y="874.04" as="targetPoint" />
          </mxGeometry>
        </mxCell>
        <mxCell id="7lBcpjUwi6PKWLyO-9Ro-141" value="Title" style="ellipse;whiteSpace=wrap;html=1;" parent="1" vertex="1">
          <mxGeometry x="-1660" y="1053.04" width="120" height="50" as="geometry" />
        </mxCell>
        <mxCell id="7lBcpjUwi6PKWLyO-9Ro-142" value="" style="endArrow=none;html=1;rounded=0;" parent="1" source="7lBcpjUwi6PKWLyO-9Ro-134" target="7lBcpjUwi6PKWLyO-9Ro-143" edge="1">
          <mxGeometry width="50" height="50" relative="1" as="geometry">
            <mxPoint x="-1545" y="863.04" as="sourcePoint" />
            <mxPoint x="-1563" y="934.04" as="targetPoint" />
          </mxGeometry>
        </mxCell>
        <mxCell id="7lBcpjUwi6PKWLyO-9Ro-143" value="Content" style="ellipse;whiteSpace=wrap;html=1;" parent="1" vertex="1">
          <mxGeometry x="-1800" y="1053.04" width="120" height="50" as="geometry" />
        </mxCell>
        <mxCell id="7lBcpjUwi6PKWLyO-9Ro-144" value="" style="endArrow=none;html=1;rounded=0;" parent="1" source="7lBcpjUwi6PKWLyO-9Ro-137" target="7lBcpjUwi6PKWLyO-9Ro-145" edge="1">
          <mxGeometry width="50" height="50" relative="1" as="geometry">
            <mxPoint x="-1475" y="713.04" as="sourcePoint" />
            <mxPoint x="-1493" y="784.04" as="targetPoint" />
          </mxGeometry>
        </mxCell>
        <mxCell id="7lBcpjUwi6PKWLyO-9Ro-145" value="CreatedTime" style="ellipse;whiteSpace=wrap;html=1;" parent="1" vertex="1">
          <mxGeometry x="-1617" y="837.04" width="120" height="50" as="geometry" />
        </mxCell>
        <mxCell id="7lBcpjUwi6PKWLyO-9Ro-151" value="" style="endArrow=none;html=1;rounded=0;" parent="1" source="7lBcpjUwi6PKWLyO-9Ro-90" target="7lBcpjUwi6PKWLyO-9Ro-150" edge="1">
          <mxGeometry width="50" height="50" relative="1" as="geometry">
            <mxPoint x="-1640" y="603.04" as="sourcePoint" />
            <mxPoint x="-1640" y="763.04" as="targetPoint" />
          </mxGeometry>
        </mxCell>
        <mxCell id="7lBcpjUwi6PKWLyO-9Ro-150" value="(1, N)" style="text;html=1;align=center;verticalAlign=middle;resizable=0;points=[];autosize=1;strokeColor=#005700;fillColor=#008a00;fontColor=#ffffff;" parent="1" vertex="1">
          <mxGeometry x="-1667" y="683.04" width="50" height="30" as="geometry" />
        </mxCell>
        <mxCell id="7lBcpjUwi6PKWLyO-9Ro-153" value="" style="endArrow=none;html=1;rounded=0;" parent="1" source="7lBcpjUwi6PKWLyO-9Ro-137" target="7lBcpjUwi6PKWLyO-9Ro-152" edge="1">
          <mxGeometry width="50" height="50" relative="1" as="geometry">
            <mxPoint x="-1640" y="818.04" as="sourcePoint" />
            <mxPoint x="-1640" y="963.04" as="targetPoint" />
          </mxGeometry>
        </mxCell>
        <mxCell id="7lBcpjUwi6PKWLyO-9Ro-152" value="(1, 1)" style="text;html=1;align=center;verticalAlign=middle;resizable=0;points=[];autosize=1;strokeColor=#005700;fillColor=#008a00;fontColor=#ffffff;" parent="1" vertex="1">
          <mxGeometry x="-1667" y="887.04" width="50" height="30" as="geometry" />
        </mxCell>
        <mxCell id="7lBcpjUwi6PKWLyO-9Ro-154" value="Timestamps" style="rounded=0;whiteSpace=wrap;html=1;fillColor=#f8cecc;strokeColor=#b85450;" parent="1" vertex="1">
          <mxGeometry x="-1360" y="968.04" width="120" height="60" as="geometry" />
        </mxCell>
        <mxCell id="7lBcpjUwi6PKWLyO-9Ro-155" value="&lt;u&gt;ID&lt;/u&gt;" style="ellipse;whiteSpace=wrap;html=1;" parent="1" vertex="1">
          <mxGeometry x="-1490" y="1083.04" width="120" height="50" as="geometry" />
        </mxCell>
        <mxCell id="7lBcpjUwi6PKWLyO-9Ro-156" value="CreatedDate" style="ellipse;whiteSpace=wrap;html=1;" parent="1" vertex="1">
          <mxGeometry x="-1360" y="1113.04" width="120" height="50" as="geometry" />
        </mxCell>
        <mxCell id="7lBcpjUwi6PKWLyO-9Ro-157" value="ModifiedDate" style="ellipse;whiteSpace=wrap;html=1;" parent="1" vertex="1">
          <mxGeometry x="-1250" y="1063.04" width="120" height="50" as="geometry" />
        </mxCell>
        <mxCell id="7lBcpjUwi6PKWLyO-9Ro-158" value="" style="endArrow=none;html=1;rounded=0;" parent="1" source="7lBcpjUwi6PKWLyO-9Ro-154" target="7lBcpjUwi6PKWLyO-9Ro-155" edge="1">
          <mxGeometry width="50" height="50" relative="1" as="geometry">
            <mxPoint x="-1220" y="1023.04" as="sourcePoint" />
            <mxPoint x="-1170" y="973.04" as="targetPoint" />
          </mxGeometry>
        </mxCell>
        <mxCell id="7lBcpjUwi6PKWLyO-9Ro-159" value="" style="endArrow=none;html=1;rounded=0;" parent="1" source="7lBcpjUwi6PKWLyO-9Ro-154" target="7lBcpjUwi6PKWLyO-9Ro-157" edge="1">
          <mxGeometry width="50" height="50" relative="1" as="geometry">
            <mxPoint x="-1302" y="1043.04" as="sourcePoint" />
            <mxPoint x="-1347" y="1104.04" as="targetPoint" />
          </mxGeometry>
        </mxCell>
        <mxCell id="7lBcpjUwi6PKWLyO-9Ro-160" value="" style="endArrow=none;html=1;rounded=0;" parent="1" source="7lBcpjUwi6PKWLyO-9Ro-154" target="7lBcpjUwi6PKWLyO-9Ro-156" edge="1">
          <mxGeometry width="50" height="50" relative="1" as="geometry">
            <mxPoint x="-1292" y="1053.04" as="sourcePoint" />
            <mxPoint x="-1337" y="1114.04" as="targetPoint" />
          </mxGeometry>
        </mxCell>
        <mxCell id="7lBcpjUwi6PKWLyO-9Ro-162" value="Has" style="rhombus;whiteSpace=wrap;html=1;fillColor=#fff2cc;strokeColor=#d6b656;" parent="1" vertex="1">
          <mxGeometry x="-1510" y="763.04" width="120" height="55" as="geometry" />
        </mxCell>
        <mxCell id="7lBcpjUwi6PKWLyO-9Ro-163" value="" style="endArrow=none;html=1;rounded=0;" parent="1" source="7lBcpjUwi6PKWLyO-9Ro-165" target="7lBcpjUwi6PKWLyO-9Ro-162" edge="1">
          <mxGeometry width="50" height="50" relative="1" as="geometry">
            <mxPoint x="-1307" y="1038.04" as="sourcePoint" />
            <mxPoint x="-1356" y="1124.04" as="targetPoint" />
          </mxGeometry>
        </mxCell>
        <mxCell id="7lBcpjUwi6PKWLyO-9Ro-164" value="" style="endArrow=none;html=1;rounded=0;" parent="1" source="7lBcpjUwi6PKWLyO-9Ro-167" target="7lBcpjUwi6PKWLyO-9Ro-162" edge="1">
          <mxGeometry width="50" height="50" relative="1" as="geometry">
            <mxPoint x="-1297" y="1048.04" as="sourcePoint" />
            <mxPoint x="-1346" y="1134.04" as="targetPoint" />
          </mxGeometry>
        </mxCell>
        <mxCell id="7lBcpjUwi6PKWLyO-9Ro-166" value="" style="endArrow=none;html=1;rounded=0;" parent="1" source="7lBcpjUwi6PKWLyO-9Ro-90" target="7lBcpjUwi6PKWLyO-9Ro-165" edge="1">
          <mxGeometry width="50" height="50" relative="1" as="geometry">
            <mxPoint x="-1615" y="603.04" as="sourcePoint" />
            <mxPoint x="-1486" y="761.04" as="targetPoint" />
          </mxGeometry>
        </mxCell>
        <mxCell id="7lBcpjUwi6PKWLyO-9Ro-165" value="(1, 1)" style="text;html=1;align=center;verticalAlign=middle;resizable=0;points=[];autosize=1;strokeColor=#005700;fillColor=#008a00;fontColor=#ffffff;" parent="1" vertex="1">
          <mxGeometry x="-1570" y="683.04" width="50" height="30" as="geometry" />
        </mxCell>
        <mxCell id="7lBcpjUwi6PKWLyO-9Ro-168" value="" style="endArrow=none;html=1;rounded=0;" parent="1" source="7lBcpjUwi6PKWLyO-9Ro-154" target="7lBcpjUwi6PKWLyO-9Ro-167" edge="1">
          <mxGeometry width="50" height="50" relative="1" as="geometry">
            <mxPoint x="-1323" y="968.04" as="sourcePoint" />
            <mxPoint x="-1454" y="801.04" as="targetPoint" />
          </mxGeometry>
        </mxCell>
        <mxCell id="7lBcpjUwi6PKWLyO-9Ro-167" value="(1, 1)" style="text;html=1;align=center;verticalAlign=middle;resizable=0;points=[];autosize=1;strokeColor=#005700;fillColor=#008a00;fontColor=#ffffff;" parent="1" vertex="1">
          <mxGeometry x="-1405" y="887.04" width="50" height="30" as="geometry" />
        </mxCell>
        <mxCell id="7lBcpjUwi6PKWLyO-9Ro-169" value="LastName" style="ellipse;whiteSpace=wrap;html=1;" parent="1" vertex="1">
          <mxGeometry x="-1950" y="235.54" width="120" height="50" as="geometry" />
        </mxCell>
        <mxCell id="7lBcpjUwi6PKWLyO-9Ro-170" value="FirstName" style="ellipse;whiteSpace=wrap;html=1;" parent="1" vertex="1">
          <mxGeometry x="-1847" y="278.03999999999996" width="120" height="50" as="geometry" />
        </mxCell>
        <mxCell id="7lBcpjUwi6PKWLyO-9Ro-171" value="" style="endArrow=none;html=1;rounded=0;" parent="1" source="7lBcpjUwi6PKWLyO-9Ro-95" target="7lBcpjUwi6PKWLyO-9Ro-169" edge="1">
          <mxGeometry width="50" height="50" relative="1" as="geometry">
            <mxPoint x="-1780" y="673.04" as="sourcePoint" />
            <mxPoint x="-1730" y="623.04" as="targetPoint" />
          </mxGeometry>
        </mxCell>
        <mxCell id="7lBcpjUwi6PKWLyO-9Ro-172" value="" style="endArrow=none;html=1;rounded=0;" parent="1" source="7lBcpjUwi6PKWLyO-9Ro-95" target="7lBcpjUwi6PKWLyO-9Ro-170" edge="1">
          <mxGeometry width="50" height="50" relative="1" as="geometry">
            <mxPoint x="-1780" y="673.04" as="sourcePoint" />
            <mxPoint x="-1730" y="623.04" as="targetPoint" />
          </mxGeometry>
        </mxCell>
        <mxCell id="7lBcpjUwi6PKWLyO-9Ro-173" value="Roles" style="rounded=0;whiteSpace=wrap;html=1;fillColor=#f8cecc;strokeColor=#b85450;" parent="1" vertex="1">
          <mxGeometry x="-2130" y="173.04" width="120" height="60" as="geometry" />
        </mxCell>
        <mxCell id="7lBcpjUwi6PKWLyO-9Ro-174" value="Has" style="rhombus;whiteSpace=wrap;html=1;fillColor=#fff2cc;strokeColor=#d6b656;" parent="1" vertex="1">
          <mxGeometry x="-1360" y="753.04" width="120" height="55" as="geometry" />
        </mxCell>
        <mxCell id="7lBcpjUwi6PKWLyO-9Ro-175" value="" style="endArrow=none;html=1;rounded=0;" parent="1" source="7lBcpjUwi6PKWLyO-9Ro-179" target="7lBcpjUwi6PKWLyO-9Ro-116" edge="1">
          <mxGeometry width="50" height="50" relative="1" as="geometry">
            <mxPoint x="-1379" y="897.04" as="sourcePoint" />
            <mxPoint x="-1427" y="822.04" as="targetPoint" />
          </mxGeometry>
        </mxCell>
        <mxCell id="7lBcpjUwi6PKWLyO-9Ro-176" value="" style="endArrow=none;html=1;rounded=0;" parent="1" source="7lBcpjUwi6PKWLyO-9Ro-177" target="7lBcpjUwi6PKWLyO-9Ro-174" edge="1">
          <mxGeometry width="50" height="50" relative="1" as="geometry">
            <mxPoint x="-1369" y="907.04" as="sourcePoint" />
            <mxPoint x="-1417" y="832.04" as="targetPoint" />
          </mxGeometry>
        </mxCell>
        <mxCell id="7lBcpjUwi6PKWLyO-9Ro-178" value="" style="endArrow=none;html=1;rounded=0;" parent="1" source="7lBcpjUwi6PKWLyO-9Ro-154" target="7lBcpjUwi6PKWLyO-9Ro-177" edge="1">
          <mxGeometry width="50" height="50" relative="1" as="geometry">
            <mxPoint x="-1243" y="968.04" as="sourcePoint" />
            <mxPoint x="-968" y="824.04" as="targetPoint" />
          </mxGeometry>
        </mxCell>
        <mxCell id="7lBcpjUwi6PKWLyO-9Ro-177" value="(1, 1)" style="text;html=1;align=center;verticalAlign=middle;resizable=0;points=[];autosize=1;strokeColor=#005700;fillColor=#008a00;fontColor=#ffffff;" parent="1" vertex="1">
          <mxGeometry x="-1325" y="887.04" width="50" height="30" as="geometry" />
        </mxCell>
        <mxCell id="7lBcpjUwi6PKWLyO-9Ro-180" value="" style="endArrow=none;html=1;rounded=0;" parent="1" source="7lBcpjUwi6PKWLyO-9Ro-174" target="7lBcpjUwi6PKWLyO-9Ro-179" edge="1">
          <mxGeometry width="50" height="50" relative="1" as="geometry">
            <mxPoint x="-914" y="794.04" as="sourcePoint" />
            <mxPoint x="-597" y="603.04" as="targetPoint" />
          </mxGeometry>
        </mxCell>
        <mxCell id="7lBcpjUwi6PKWLyO-9Ro-179" value="(1, 1)" style="text;html=1;align=center;verticalAlign=middle;resizable=0;points=[];autosize=1;strokeColor=#005700;fillColor=#008a00;fontColor=#ffffff;" parent="1" vertex="1">
          <mxGeometry x="-980" y="683.04" width="50" height="30" as="geometry" />
        </mxCell>
        <mxCell id="7lBcpjUwi6PKWLyO-9Ro-181" value="RoleName" style="ellipse;whiteSpace=wrap;html=1;" parent="1" vertex="1">
          <mxGeometry x="-2310" y="123.03999999999999" width="120" height="40" as="geometry" />
        </mxCell>
        <mxCell id="7lBcpjUwi6PKWLyO-9Ro-182" value="&lt;u&gt;Id&lt;/u&gt;" style="ellipse;whiteSpace=wrap;html=1;" parent="1" vertex="1">
          <mxGeometry x="-2160" y="60" width="120" height="50" as="geometry" />
        </mxCell>
        <mxCell id="7lBcpjUwi6PKWLyO-9Ro-185" value="Description" style="ellipse;whiteSpace=wrap;html=1;" parent="1" vertex="1">
          <mxGeometry x="-2280" y="253.04" width="120" height="40" as="geometry" />
        </mxCell>
        <mxCell id="7lBcpjUwi6PKWLyO-9Ro-187" value="" style="endArrow=none;html=1;rounded=0;" parent="1" source="7lBcpjUwi6PKWLyO-9Ro-173" target="7lBcpjUwi6PKWLyO-9Ro-181" edge="1">
          <mxGeometry width="50" height="50" relative="1" as="geometry">
            <mxPoint x="-2490" y="283.03999999999996" as="sourcePoint" />
            <mxPoint x="-2440" y="233.04" as="targetPoint" />
          </mxGeometry>
        </mxCell>
        <mxCell id="7lBcpjUwi6PKWLyO-9Ro-188" value="" style="endArrow=none;html=1;rounded=0;" parent="1" source="7lBcpjUwi6PKWLyO-9Ro-185" target="7lBcpjUwi6PKWLyO-9Ro-173" edge="1">
          <mxGeometry width="50" height="50" relative="1" as="geometry">
            <mxPoint x="-2490" y="283.03999999999996" as="sourcePoint" />
            <mxPoint x="-2440" y="233.04" as="targetPoint" />
          </mxGeometry>
        </mxCell>
        <mxCell id="7lBcpjUwi6PKWLyO-9Ro-189" value="" style="endArrow=none;html=1;rounded=0;" parent="1" source="7lBcpjUwi6PKWLyO-9Ro-173" target="7lBcpjUwi6PKWLyO-9Ro-182" edge="1">
          <mxGeometry width="50" height="50" relative="1" as="geometry">
            <mxPoint x="-2490" y="283.03999999999996" as="sourcePoint" />
            <mxPoint x="-2440" y="233.04" as="targetPoint" />
          </mxGeometry>
        </mxCell>
        <mxCell id="7lBcpjUwi6PKWLyO-9Ro-191" value="Has" style="rhombus;whiteSpace=wrap;html=1;fillColor=#fff2cc;strokeColor=#d6b656;" parent="1" vertex="1">
          <mxGeometry x="-2130" y="438.03999999999996" width="120" height="55" as="geometry" />
        </mxCell>
        <mxCell id="7lBcpjUwi6PKWLyO-9Ro-192" value="" style="endArrow=none;html=1;rounded=0;" parent="1" source="7lBcpjUwi6PKWLyO-9Ro-194" target="7lBcpjUwi6PKWLyO-9Ro-173" edge="1">
          <mxGeometry width="50" height="50" relative="1" as="geometry">
            <mxPoint x="-1960" y="533.04" as="sourcePoint" />
            <mxPoint x="-1910" y="483.03999999999996" as="targetPoint" />
          </mxGeometry>
        </mxCell>
        <mxCell id="7lBcpjUwi6PKWLyO-9Ro-193" value="" style="endArrow=none;html=1;rounded=0;" parent="1" source="7lBcpjUwi6PKWLyO-9Ro-196" target="7lBcpjUwi6PKWLyO-9Ro-191" edge="1">
          <mxGeometry width="50" height="50" relative="1" as="geometry">
            <mxPoint x="-1960" y="533.04" as="sourcePoint" />
            <mxPoint x="-1910" y="483.03999999999996" as="targetPoint" />
          </mxGeometry>
        </mxCell>
        <mxCell id="7lBcpjUwi6PKWLyO-9Ro-195" value="" style="endArrow=none;html=1;rounded=0;" parent="1" source="7lBcpjUwi6PKWLyO-9Ro-191" target="7lBcpjUwi6PKWLyO-9Ro-194" edge="1">
          <mxGeometry width="50" height="50" relative="1" as="geometry">
            <mxPoint x="-1959" y="376.03999999999996" as="sourcePoint" />
            <mxPoint x="-2160" y="279.03999999999996" as="targetPoint" />
          </mxGeometry>
        </mxCell>
        <mxCell id="7lBcpjUwi6PKWLyO-9Ro-194" value="(1, N)" style="text;html=1;align=center;verticalAlign=middle;resizable=0;points=[];autosize=1;strokeColor=#005700;fillColor=#008a00;fontColor=#ffffff;" parent="1" vertex="1">
          <mxGeometry x="-2095" y="308.03999999999996" width="50" height="30" as="geometry" />
        </mxCell>
        <mxCell id="7lBcpjUwi6PKWLyO-9Ro-197" value="" style="endArrow=none;html=1;rounded=0;" parent="1" source="7lBcpjUwi6PKWLyO-9Ro-90" target="7lBcpjUwi6PKWLyO-9Ro-196" edge="1">
          <mxGeometry width="50" height="50" relative="1" as="geometry">
            <mxPoint x="-1688" y="543.04" as="sourcePoint" />
            <mxPoint x="-1905" y="406.03999999999996" as="targetPoint" />
          </mxGeometry>
        </mxCell>
        <mxCell id="7lBcpjUwi6PKWLyO-9Ro-196" value="(1, N)" style="text;html=1;align=center;verticalAlign=middle;resizable=0;points=[];autosize=1;strokeColor=#005700;fillColor=#008a00;fontColor=#ffffff;" parent="1" vertex="1">
          <mxGeometry x="-1860" y="443.03999999999996" width="50" height="30" as="geometry" />
        </mxCell>
        <mxCell id="7lBcpjUwi6PKWLyO-9Ro-199" value="" style="endArrow=none;html=1;rounded=0;" parent="1" source="7lBcpjUwi6PKWLyO-9Ro-105" target="7lBcpjUwi6PKWLyO-9Ro-198" edge="1">
          <mxGeometry width="50" height="50" relative="1" as="geometry">
            <mxPoint x="-1240" y="277.03999999999996" as="sourcePoint" />
            <mxPoint x="-962" y="385.03999999999996" as="targetPoint" />
          </mxGeometry>
        </mxCell>
        <mxCell id="7lBcpjUwi6PKWLyO-9Ro-198" value="(1, N)" style="text;html=1;align=center;verticalAlign=middle;resizable=0;points=[];autosize=1;strokeColor=#005700;fillColor=#008a00;fontColor=#ffffff;" parent="1" vertex="1">
          <mxGeometry x="-1150" y="323.03999999999996" width="50" height="30" as="geometry" />
        </mxCell>
        <mxCell id="7lBcpjUwi6PKWLyO-9Ro-201" value="" style="endArrow=none;html=1;rounded=0;" parent="1" source="7lBcpjUwi6PKWLyO-9Ro-127" target="7lBcpjUwi6PKWLyO-9Ro-200" edge="1">
          <mxGeometry width="50" height="50" relative="1" as="geometry">
            <mxPoint x="-960" y="412.03999999999996" as="sourcePoint" />
            <mxPoint x="-1240" y="545.04" as="targetPoint" />
          </mxGeometry>
        </mxCell>
        <mxCell id="7lBcpjUwi6PKWLyO-9Ro-200" value="(1, N)" style="text;html=1;align=center;verticalAlign=middle;resizable=0;points=[];autosize=1;strokeColor=#005700;fillColor=#008a00;fontColor=#ffffff;" parent="1" vertex="1">
          <mxGeometry x="-1150" y="443.03999999999996" width="50" height="30" as="geometry" />
        </mxCell>
        <mxCell id="7lBcpjUwi6PKWLyO-9Ro-203" value="" style="endArrow=none;html=1;rounded=0;" parent="1" source="7lBcpjUwi6PKWLyO-9Ro-116" target="7lBcpjUwi6PKWLyO-9Ro-202" edge="1">
          <mxGeometry width="50" height="50" relative="1" as="geometry">
            <mxPoint x="-607" y="546.04" as="sourcePoint" />
            <mxPoint x="-900" y="412.03999999999996" as="targetPoint" />
          </mxGeometry>
        </mxCell>
        <mxCell id="7lBcpjUwi6PKWLyO-9Ro-202" value="(1, N)" style="text;html=1;align=center;verticalAlign=middle;resizable=0;points=[];autosize=1;strokeColor=#005700;fillColor=#008a00;fontColor=#ffffff;" parent="1" vertex="1">
          <mxGeometry x="-790" y="443.03999999999996" width="50" height="30" as="geometry" />
        </mxCell>
        <mxCell id="7lBcpjUwi6PKWLyO-9Ro-205" value="" style="endArrow=none;html=1;rounded=0;" parent="1" source="7lBcpjUwi6PKWLyO-9Ro-105" target="7lBcpjUwi6PKWLyO-9Ro-204" edge="1">
          <mxGeometry width="50" height="50" relative="1" as="geometry">
            <mxPoint x="-1240" y="253.04" as="sourcePoint" />
            <mxPoint x="-607" y="251.04" as="targetPoint" />
          </mxGeometry>
        </mxCell>
        <mxCell id="7lBcpjUwi6PKWLyO-9Ro-204" value="(1, N)" style="text;html=1;align=center;verticalAlign=middle;resizable=0;points=[];autosize=1;strokeColor=#005700;fillColor=#008a00;fontColor=#ffffff;" parent="1" vertex="1">
          <mxGeometry x="-790" y="233.04" width="50" height="30" as="geometry" />
        </mxCell>
        <mxCell id="7lBcpjUwi6PKWLyO-9Ro-207" value="" style="endArrow=none;html=1;rounded=0;" parent="1" source="7lBcpjUwi6PKWLyO-9Ro-116" target="7lBcpjUwi6PKWLyO-9Ro-206" edge="1">
          <mxGeometry width="50" height="50" relative="1" as="geometry">
            <mxPoint x="-547" y="543.04" as="sourcePoint" />
            <mxPoint x="-547" y="278.03999999999996" as="targetPoint" />
          </mxGeometry>
        </mxCell>
        <mxCell id="7lBcpjUwi6PKWLyO-9Ro-206" value="(1, 1)" style="text;html=1;align=center;verticalAlign=middle;resizable=0;points=[];autosize=1;strokeColor=#005700;fillColor=#008a00;fontColor=#ffffff;" parent="1" vertex="1">
          <mxGeometry x="-572" y="443.03999999999996" width="50" height="30" as="geometry" />
        </mxCell>
        <mxCell id="7lBcpjUwi6PKWLyO-9Ro-209" value="" style="endArrow=none;html=1;rounded=0;" parent="1" source="7lBcpjUwi6PKWLyO-9Ro-104" edge="1">
          <mxGeometry width="50" height="50" relative="1" as="geometry">
            <mxPoint x="-1240" y="573.04" as="sourcePoint" />
            <mxPoint x="-1150" y="573.04" as="targetPoint" />
          </mxGeometry>
        </mxCell>
        <mxCell id="7lBcpjUwi6PKWLyO-9Ro-208" value="(1, N)" style="text;html=1;align=center;verticalAlign=middle;resizable=0;points=[];autosize=1;strokeColor=#005700;fillColor=#008a00;fontColor=#ffffff;" parent="1" vertex="1">
          <mxGeometry x="-1150" y="558.04" width="50" height="30" as="geometry" />
        </mxCell>
        <mxCell id="7lBcpjUwi6PKWLyO-9Ro-211" value="" style="endArrow=none;html=1;rounded=0;" parent="1" source="7lBcpjUwi6PKWLyO-9Ro-131" target="7lBcpjUwi6PKWLyO-9Ro-210" edge="1">
          <mxGeometry width="50" height="50" relative="1" as="geometry">
            <mxPoint x="-870" y="573.04" as="sourcePoint" />
            <mxPoint x="-607" y="573.04" as="targetPoint" />
          </mxGeometry>
        </mxCell>
        <mxCell id="7lBcpjUwi6PKWLyO-9Ro-210" value="(1, 1)" style="text;html=1;align=center;verticalAlign=middle;resizable=0;points=[];autosize=1;strokeColor=#005700;fillColor=#008a00;fontColor=#ffffff;" parent="1" vertex="1">
          <mxGeometry x="-790" y="553.04" width="50" height="30" as="geometry" />
        </mxCell>
        <mxCell id="7lBcpjUwi6PKWLyO-9Ro-213" value="TopicStatus" style="rounded=0;whiteSpace=wrap;html=1;fillColor=#f8cecc;strokeColor=#b85450;" parent="1" vertex="1">
          <mxGeometry x="-1030" y="973.04" width="120" height="60" as="geometry" />
        </mxCell>
        <mxCell id="7lBcpjUwi6PKWLyO-9Ro-214" value="&lt;u&gt;ID&lt;/u&gt;" style="ellipse;whiteSpace=wrap;html=1;" parent="1" vertex="1">
          <mxGeometry x="-1050" y="1093.04" width="120" height="50" as="geometry" />
        </mxCell>
        <mxCell id="7lBcpjUwi6PKWLyO-9Ro-215" value="Name" style="ellipse;whiteSpace=wrap;html=1;" parent="1" vertex="1">
          <mxGeometry x="-900" y="1073.04" width="120" height="50" as="geometry" />
        </mxCell>
        <mxCell id="7lBcpjUwi6PKWLyO-9Ro-216" value="" style="endArrow=none;html=1;rounded=0;" parent="1" source="7lBcpjUwi6PKWLyO-9Ro-214" target="7lBcpjUwi6PKWLyO-9Ro-213" edge="1">
          <mxGeometry width="50" height="50" relative="1" as="geometry">
            <mxPoint x="-800" y="1103.04" as="sourcePoint" />
            <mxPoint x="-750" y="1053.04" as="targetPoint" />
          </mxGeometry>
        </mxCell>
        <mxCell id="7lBcpjUwi6PKWLyO-9Ro-218" value="" style="endArrow=none;html=1;rounded=0;" parent="1" source="7lBcpjUwi6PKWLyO-9Ro-215" target="7lBcpjUwi6PKWLyO-9Ro-213" edge="1">
          <mxGeometry width="50" height="50" relative="1" as="geometry">
            <mxPoint x="-800" y="1103.04" as="sourcePoint" />
            <mxPoint x="-750" y="1053.04" as="targetPoint" />
          </mxGeometry>
        </mxCell>
        <mxCell id="7lBcpjUwi6PKWLyO-9Ro-219" value="Has" style="rhombus;whiteSpace=wrap;html=1;fillColor=#fff2cc;strokeColor=#d6b656;" parent="1" vertex="1">
          <mxGeometry x="-980" y="763.04" width="120" height="55" as="geometry" />
        </mxCell>
        <mxCell id="7lBcpjUwi6PKWLyO-9Ro-220" value="" style="endArrow=none;html=1;rounded=0;" parent="1" source="7lBcpjUwi6PKWLyO-9Ro-222" target="7lBcpjUwi6PKWLyO-9Ro-116" edge="1">
          <mxGeometry width="50" height="50" relative="1" as="geometry">
            <mxPoint x="-800" y="743.04" as="sourcePoint" />
            <mxPoint x="-750" y="693.04" as="targetPoint" />
          </mxGeometry>
        </mxCell>
        <mxCell id="7lBcpjUwi6PKWLyO-9Ro-221" value="" style="endArrow=none;html=1;rounded=0;" parent="1" source="7lBcpjUwi6PKWLyO-9Ro-225" target="7lBcpjUwi6PKWLyO-9Ro-213" edge="1">
          <mxGeometry width="50" height="50" relative="1" as="geometry">
            <mxPoint x="-800" y="743.04" as="sourcePoint" />
            <mxPoint x="-750" y="693.04" as="targetPoint" />
          </mxGeometry>
        </mxCell>
        <mxCell id="7lBcpjUwi6PKWLyO-9Ro-223" value="" style="endArrow=none;html=1;rounded=0;" parent="1" source="7lBcpjUwi6PKWLyO-9Ro-219" target="7lBcpjUwi6PKWLyO-9Ro-222" edge="1">
          <mxGeometry width="50" height="50" relative="1" as="geometry">
            <mxPoint x="-941" y="766.04" as="sourcePoint" />
            <mxPoint x="-607" y="602.04" as="targetPoint" />
          </mxGeometry>
        </mxCell>
        <mxCell id="7lBcpjUwi6PKWLyO-9Ro-222" value="(1, 1)" style="text;html=1;align=center;verticalAlign=middle;resizable=0;points=[];autosize=1;strokeColor=#005700;fillColor=#008a00;fontColor=#ffffff;" parent="1" vertex="1">
          <mxGeometry x="-790" y="683.04" width="50" height="30" as="geometry" />
        </mxCell>
        <mxCell id="7lBcpjUwi6PKWLyO-9Ro-226" value="" style="endArrow=none;html=1;rounded=0;" parent="1" source="7lBcpjUwi6PKWLyO-9Ro-219" target="7lBcpjUwi6PKWLyO-9Ro-225" edge="1">
          <mxGeometry width="50" height="50" relative="1" as="geometry">
            <mxPoint x="-970" y="808.04" as="sourcePoint" />
            <mxPoint x="-970" y="973.04" as="targetPoint" />
          </mxGeometry>
        </mxCell>
        <mxCell id="7lBcpjUwi6PKWLyO-9Ro-225" value="(1, N)" style="text;html=1;align=center;verticalAlign=middle;resizable=0;points=[];autosize=1;strokeColor=#005700;fillColor=#008a00;fontColor=#ffffff;" parent="1" vertex="1">
          <mxGeometry x="-980" y="887.04" width="50" height="30" as="geometry" />
        </mxCell>
        <mxCell id="7lBcpjUwi6PKWLyO-9Ro-227" value="Categories" style="rounded=0;whiteSpace=wrap;html=1;fillColor=#f8cecc;strokeColor=#b85450;" parent="1" vertex="1">
          <mxGeometry x="-607" y="968.04" width="120" height="60" as="geometry" />
        </mxCell>
        <mxCell id="7lBcpjUwi6PKWLyO-9Ro-228" value="&lt;u&gt;ID&lt;/u&gt;" style="ellipse;whiteSpace=wrap;html=1;" parent="1" vertex="1">
          <mxGeometry x="-680" y="1063.04" width="120" height="50" as="geometry" />
        </mxCell>
        <mxCell id="7lBcpjUwi6PKWLyO-9Ro-229" value="" style="endArrow=none;html=1;rounded=0;" parent="1" source="7lBcpjUwi6PKWLyO-9Ro-228" target="7lBcpjUwi6PKWLyO-9Ro-227" edge="1">
          <mxGeometry width="50" height="50" relative="1" as="geometry">
            <mxPoint x="-430" y="1093.04" as="sourcePoint" />
            <mxPoint x="-605" y="1023.04" as="targetPoint" />
          </mxGeometry>
        </mxCell>
        <mxCell id="7lBcpjUwi6PKWLyO-9Ro-231" value="Name" style="ellipse;whiteSpace=wrap;html=1;" parent="1" vertex="1">
          <mxGeometry x="-520" y="1063.04" width="120" height="50" as="geometry" />
        </mxCell>
        <mxCell id="7lBcpjUwi6PKWLyO-9Ro-232" value="" style="endArrow=none;html=1;rounded=0;" parent="1" source="7lBcpjUwi6PKWLyO-9Ro-231" target="7lBcpjUwi6PKWLyO-9Ro-227" edge="1">
          <mxGeometry width="50" height="50" relative="1" as="geometry">
            <mxPoint x="-860" y="1086.04" as="sourcePoint" />
            <mxPoint x="-919" y="1043.04" as="targetPoint" />
          </mxGeometry>
        </mxCell>
        <mxCell id="7lBcpjUwi6PKWLyO-9Ro-233" value="Is associated" style="rhombus;whiteSpace=wrap;html=1;fillColor=#fff2cc;strokeColor=#d6b656;" parent="1" vertex="1">
          <mxGeometry x="-607" y="763.04" width="120" height="55" as="geometry" />
        </mxCell>
        <mxCell id="7lBcpjUwi6PKWLyO-9Ro-234" value="" style="endArrow=none;html=1;rounded=0;" parent="1" source="7lBcpjUwi6PKWLyO-9Ro-236" target="7lBcpjUwi6PKWLyO-9Ro-116" edge="1">
          <mxGeometry width="50" height="50" relative="1" as="geometry">
            <mxPoint x="-970" y="943.04" as="sourcePoint" />
            <mxPoint x="-920" y="893.04" as="targetPoint" />
          </mxGeometry>
        </mxCell>
        <mxCell id="7lBcpjUwi6PKWLyO-9Ro-235" value="" style="endArrow=none;html=1;rounded=0;" parent="1" source="7lBcpjUwi6PKWLyO-9Ro-238" target="7lBcpjUwi6PKWLyO-9Ro-227" edge="1">
          <mxGeometry width="50" height="50" relative="1" as="geometry">
            <mxPoint x="-537" y="773.04" as="sourcePoint" />
            <mxPoint x="-537" y="613.04" as="targetPoint" />
          </mxGeometry>
        </mxCell>
        <mxCell id="7lBcpjUwi6PKWLyO-9Ro-237" value="" style="endArrow=none;html=1;rounded=0;" parent="1" source="7lBcpjUwi6PKWLyO-9Ro-233" target="7lBcpjUwi6PKWLyO-9Ro-236" edge="1">
          <mxGeometry width="50" height="50" relative="1" as="geometry">
            <mxPoint x="-547" y="763.04" as="sourcePoint" />
            <mxPoint x="-547" y="603.04" as="targetPoint" />
          </mxGeometry>
        </mxCell>
        <mxCell id="7lBcpjUwi6PKWLyO-9Ro-236" value="(1, N)" style="text;html=1;align=center;verticalAlign=middle;resizable=0;points=[];autosize=1;strokeColor=#005700;fillColor=#008a00;fontColor=#ffffff;" parent="1" vertex="1">
          <mxGeometry x="-570" y="683.04" width="50" height="30" as="geometry" />
        </mxCell>
        <mxCell id="7lBcpjUwi6PKWLyO-9Ro-239" value="" style="endArrow=none;html=1;rounded=0;" parent="1" source="7lBcpjUwi6PKWLyO-9Ro-233" target="7lBcpjUwi6PKWLyO-9Ro-238" edge="1">
          <mxGeometry width="50" height="50" relative="1" as="geometry">
            <mxPoint x="-547" y="818.04" as="sourcePoint" />
            <mxPoint x="-547" y="968.04" as="targetPoint" />
          </mxGeometry>
        </mxCell>
        <mxCell id="7lBcpjUwi6PKWLyO-9Ro-238" value="(1, N)" style="text;html=1;align=center;verticalAlign=middle;resizable=0;points=[];autosize=1;strokeColor=#005700;fillColor=#008a00;fontColor=#ffffff;" parent="1" vertex="1">
          <mxGeometry x="-572" y="887.04" width="50" height="30" as="geometry" />
        </mxCell>
        <mxCell id="7lBcpjUwi6PKWLyO-9Ro-243" value="PhoneNumber" style="ellipse;whiteSpace=wrap;html=1;" parent="1" vertex="1">
          <mxGeometry x="-1927" y="605.54" width="120" height="50" as="geometry" />
        </mxCell>
        <mxCell id="7lBcpjUwi6PKWLyO-9Ro-244" value="" style="endArrow=none;html=1;rounded=0;" parent="1" source="7lBcpjUwi6PKWLyO-9Ro-243" target="7lBcpjUwi6PKWLyO-9Ro-90" edge="1">
          <mxGeometry width="50" height="50" relative="1" as="geometry">
            <mxPoint x="-1587" y="575.54" as="sourcePoint" />
            <mxPoint x="-1767" y="580.54" as="targetPoint" />
          </mxGeometry>
        </mxCell>
        <mxCell id="7lBcpjUwi6PKWLyO-9Ro-252" value="SearchLogs" style="rounded=0;whiteSpace=wrap;html=1;fillColor=#f8cecc;strokeColor=#b85450;" parent="1" vertex="1">
          <mxGeometry x="-2070" y="963.04" width="120" height="60" as="geometry" />
        </mxCell>
        <mxCell id="7lBcpjUwi6PKWLyO-9Ro-253" value="Create" style="rhombus;whiteSpace=wrap;html=1;fillColor=#fff2cc;strokeColor=#d6b656;" parent="1" vertex="1">
          <mxGeometry x="-1907" y="763.04" width="120" height="55" as="geometry" />
        </mxCell>
        <mxCell id="7lBcpjUwi6PKWLyO-9Ro-254" value="CreatedTime" style="ellipse;whiteSpace=wrap;html=1;" parent="1" vertex="1">
          <mxGeometry x="-1990" y="693.04" width="120" height="50" as="geometry" />
        </mxCell>
        <mxCell id="7lBcpjUwi6PKWLyO-9Ro-255" value="" style="endArrow=none;html=1;rounded=0;" parent="1" source="7lBcpjUwi6PKWLyO-9Ro-254" target="7lBcpjUwi6PKWLyO-9Ro-253" edge="1">
          <mxGeometry width="50" height="50" relative="1" as="geometry">
            <mxPoint x="-1880" y="713.04" as="sourcePoint" />
            <mxPoint x="-1830" y="663.04" as="targetPoint" />
          </mxGeometry>
        </mxCell>
        <mxCell id="7lBcpjUwi6PKWLyO-9Ro-256" value="" style="endArrow=none;html=1;rounded=0;" parent="1" source="7lBcpjUwi6PKWLyO-9Ro-265" target="7lBcpjUwi6PKWLyO-9Ro-253" edge="1">
          <mxGeometry width="50" height="50" relative="1" as="geometry">
            <mxPoint x="-1880" y="713.04" as="sourcePoint" />
            <mxPoint x="-1830" y="663.04" as="targetPoint" />
          </mxGeometry>
        </mxCell>
        <mxCell id="7lBcpjUwi6PKWLyO-9Ro-257" value="" style="endArrow=none;html=1;rounded=0;" parent="1" source="7lBcpjUwi6PKWLyO-9Ro-263" target="7lBcpjUwi6PKWLyO-9Ro-90" edge="1">
          <mxGeometry width="50" height="50" relative="1" as="geometry">
            <mxPoint x="-1880" y="713.04" as="sourcePoint" />
            <mxPoint x="-1830" y="663.04" as="targetPoint" />
          </mxGeometry>
        </mxCell>
        <mxCell id="7lBcpjUwi6PKWLyO-9Ro-258" value="&lt;u&gt;ID&lt;/u&gt;" style="ellipse;whiteSpace=wrap;html=1;" parent="1" vertex="1">
          <mxGeometry x="-2230" y="1003.04" width="120" height="50" as="geometry" />
        </mxCell>
        <mxCell id="7lBcpjUwi6PKWLyO-9Ro-259" value="Content" style="ellipse;whiteSpace=wrap;html=1;" parent="1" vertex="1">
          <mxGeometry x="-2080" y="1063.04" width="120" height="50" as="geometry" />
        </mxCell>
        <mxCell id="7lBcpjUwi6PKWLyO-9Ro-260" value="" style="endArrow=none;html=1;rounded=0;" parent="1" source="7lBcpjUwi6PKWLyO-9Ro-258" target="7lBcpjUwi6PKWLyO-9Ro-252" edge="1">
          <mxGeometry width="50" height="50" relative="1" as="geometry">
            <mxPoint x="-1880" y="713.04" as="sourcePoint" />
            <mxPoint x="-1830" y="663.04" as="targetPoint" />
          </mxGeometry>
        </mxCell>
        <mxCell id="7lBcpjUwi6PKWLyO-9Ro-261" value="" style="endArrow=none;html=1;rounded=0;" parent="1" source="7lBcpjUwi6PKWLyO-9Ro-259" target="7lBcpjUwi6PKWLyO-9Ro-252" edge="1">
          <mxGeometry width="50" height="50" relative="1" as="geometry">
            <mxPoint x="-1880" y="713.04" as="sourcePoint" />
            <mxPoint x="-1830" y="663.04" as="targetPoint" />
          </mxGeometry>
        </mxCell>
        <mxCell id="7lBcpjUwi6PKWLyO-9Ro-264" value="" style="endArrow=none;html=1;rounded=0;" parent="1" source="7lBcpjUwi6PKWLyO-9Ro-253" target="7lBcpjUwi6PKWLyO-9Ro-263" edge="1">
          <mxGeometry width="50" height="50" relative="1" as="geometry">
            <mxPoint x="-1829" y="771.04" as="sourcePoint" />
            <mxPoint x="-1669" y="603.04" as="targetPoint" />
          </mxGeometry>
        </mxCell>
        <mxCell id="7lBcpjUwi6PKWLyO-9Ro-263" value="(1, N)" style="text;html=1;align=center;verticalAlign=middle;resizable=0;points=[];autosize=1;strokeColor=#005700;fillColor=#008a00;fontColor=#ffffff;" parent="1" vertex="1">
          <mxGeometry x="-1777" y="683.04" width="50" height="30" as="geometry" />
        </mxCell>
        <mxCell id="7lBcpjUwi6PKWLyO-9Ro-266" value="" style="endArrow=none;html=1;rounded=0;" parent="1" source="7lBcpjUwi6PKWLyO-9Ro-252" target="7lBcpjUwi6PKWLyO-9Ro-265" edge="1">
          <mxGeometry width="50" height="50" relative="1" as="geometry">
            <mxPoint x="-1986" y="963.04" as="sourcePoint" />
            <mxPoint x="-1863" y="811.04" as="targetPoint" />
          </mxGeometry>
        </mxCell>
        <mxCell id="7lBcpjUwi6PKWLyO-9Ro-265" value="(1, 1)" style="text;html=1;align=center;verticalAlign=middle;resizable=0;points=[];autosize=1;strokeColor=#005700;fillColor=#008a00;fontColor=#ffffff;" parent="1" vertex="1">
          <mxGeometry x="-1960" y="887.04" width="50" height="30" as="geometry" />
        </mxCell>
      </root>
    </mxGraphModel>
  </diagram>
</mxfile>
